<?xml version="1.0" encoding="UTF-8"?>
<svg version="1.1" xmlns="http://www.w3.org/2000/svg" width="300" height="85">
<path d="M0 0 C21.45 0 42.9 0 65 0 C67.59383045 7.13303374 70.09828398 14.22516836 72.3828125 21.453125 C72.68315399 22.39758484 72.98349548 23.34204468 73.29293823 24.31512451 C73.9208171 26.2911209 74.54760805 28.26746328 75.17333984 30.24414062 C76.12732069 33.25733001 77.08486556 36.26936916 78.04296875 39.28125 C78.6564579 41.21347567 79.26974618 43.14576513 79.8828125 45.078125 C80.16617462 45.96993469 80.44953674 46.86174438 80.7414856 47.78057861 C81.00871429 48.62545837 81.27594299 49.47033813 81.55126953 50.34082031 C81.80265686 51.1344397 82.05404419 51.92805908 82.31304932 52.74572754 C82.95101776 54.83926165 83.51619108 56.94059076 84.06982422 59.05761719 C84.53026123 60.51409668 84.53026123 60.51409668 85 62 C85.66 62.33 86.32 62.66 87 63 C87.15855469 62.30777344 87.31710938 61.61554687 87.48046875 60.90234375 C88.83633492 55.216695 90.39357218 49.67490755 92.2890625 44.14453125 C94.16661349 38.59992732 95.93164974 33.03130133 97.60546875 27.421875 C97.81856186 26.70890762 98.03165497 25.99594025 98.25120544 25.2613678 C99.12168954 22.34251148 99.98889943 19.4227147 100.85131836 16.50146484 C101.49413998 14.32776579 102.14312497 12.15598328 102.79296875 9.984375 C102.9856987 9.32507996 103.17842865 8.66578491 103.3769989 7.98651123 C104.29805648 4.92141318 105.20500647 2.6924903 107 0 C110.0390625 -0.29296875 110.0390625 -0.29296875 113.625 -0.1875 C114.81351562 -0.16042969 116.00203125 -0.13335938 117.2265625 -0.10546875 C118.14179687 -0.07066406 119.05703125 -0.03585937 120 0 C119.37683634 3.40561781 118.54008621 6.60626688 117.42578125 9.8828125 C117.09473389 10.86451416 116.76368652 11.84621582 116.42260742 12.85766602 C115.87310425 14.47499634 115.87310425 14.47499634 115.3125 16.125 C112.29833554 25.06531832 109.33374679 34.01939839 106.4296875 42.99609375 C106.12139511 43.94810669 105.81310272 44.90011963 105.49546814 45.88098145 C104.25207407 49.72189386 103.00910229 53.56292504 101.77261353 57.40606689 C95.6783347 76.34456056 95.6783347 76.34456056 92 85 C87.71 85 83.42 85 79 85 C76.85730416 79.40118938 74.90336286 73.77454845 73.07421875 68.06640625 C72.51889231 66.3470013 71.96355336 64.62760039 71.40820312 62.90820312 C70.55213078 60.24997563 69.69682493 57.59150341 68.84204102 54.93286133 C65.07303816 43.22058362 61.14718228 31.58367533 57 20 C54 11.50624558 54 11.50624558 54 8 C53.00726074 8.65266846 52.01452148 9.30533691 50.99169922 9.9777832 C47.07341106 12.2075609 43.58069289 12.5104427 39.1328125 12.35546875 C38.41261932 12.34743729 37.69242615 12.33940582 36.95040894 12.33113098 C34.67448826 12.30237252 32.40032921 12.24612012 30.125 12.1875 C27.82848395 12.14499861 25.53200395 12.10819906 23.23532104 12.07600403 C21.81179252 12.05428279 20.38835029 12.02558431 18.96511841 11.98930359 C17.31041783 11.95562347 15.65481784 11.97268178 14 12 C12.77215191 13.00559794 12.77215191 13.00559794 12.88647461 15.04125977 C12.89171143 15.91580811 12.89694824 16.79035645 12.90234375 17.69140625 C12.90484131 18.54162354 12.90733887 19.39184082 12.90991211 20.26782227 C12.91901611 21.35506592 12.92812012 22.44230957 12.9375 23.5625 C12.958125 27.006875 12.97875 30.45125 13 34 C24.88 34.33 36.76 34.66 49 35 C50.50934217 38.01868434 50.17510672 40.67297229 50 44 C49.34 44.99 48.68 45.98 48 47 C45.31215183 47.33784096 42.8428575 47.48892244 40.1484375 47.51171875 C39.37440582 47.52966995 38.60037415 47.54762115 37.80288696 47.56611633 C35.32698033 47.62036392 32.85126797 47.65416009 30.375 47.6875 C28.69788954 47.72066046 27.02080477 47.75514893 25.34375 47.79101562 C21.22913652 47.87860393 17.11541955 47.9385442 13 48 C12.67 56.25 12.34 64.5 12 73 C14.50335938 72.98839844 17.00671875 72.97679688 19.5859375 72.96484375 C22.00520704 72.95704941 24.4244752 72.95097479 26.84375 72.94506836 C28.52767562 72.94003347 30.21159686 72.93320519 31.89550781 72.92456055 C34.31316203 72.91245804 36.73075856 72.90676332 39.1484375 72.90234375 C39.9036972 72.89718246 40.65895691 72.89202118 41.43710327 72.88670349 C46.77225659 72.88612829 46.77225659 72.88612829 49 74 C49 77.63 49 81.26 49 85 C32.83 85 16.66 85 0 85 C0 56.95 0 28.9 0 0 Z " fill="#FEFEFE" transform="translate(0,0)"/>
<path d="M0 0 C4.29 0 8.58 0 13 0 C13 11.88 13 23.76 13 36 C13.66 36 14.32 36 15 36 C15.20625 34.9275 15.4125 33.855 15.625 32.75 C18.79862324 20.44677566 25.48548414 11.45320454 35.69140625 4.046875 C45.99417802 -1.8247446 60.69777364 -2.46486054 72.07861328 0.55078125 C75.45725494 1.84945554 78.21693484 3.71777274 81 6 C82.36125 6.8971875 82.36125 6.8971875 83.75 7.8125 C92.14684349 15.97609783 98.35237529 25.90048581 99.30078125 37.76171875 C99.32637274 46.33486828 98.52713867 53.73965121 96 62 C95.83371094 62.73347656 95.66742188 63.46695313 95.49609375 64.22265625 C94.81474668 67.21198979 94.47374418 68.67952599 91.875 70.4375 C90.946875 70.7159375 90.946875 70.7159375 90 71 C90.33 71.99 90.66 72.98 91 74 C91.66 74 92.32 74 93 74 C93.41176754 77.60296594 93.1535853 78.78402067 91 81.8125 C90.34 82.534375 89.68 83.25625 89 84 C86.125 83.6875 86.125 83.6875 83 83 C82.34 82.01 81.68 81.02 81 80 C79.68 80 78.36 80 77 80 C76.67 80.66 76.34 81.32 76 82 C65.99047851 86.34232826 52.26832035 87.4081438 41.75683594 84.34667969 C29.42988373 79.30953926 22.35963241 69.81682734 17.12890625 58.015625 C16.12159114 55.32480401 15.45589666 52.8297034 15 50 C14.34 50 13.68 50 13 50 C13 61.55 13 73.1 13 85 C8.71 85 4.42 85 0 85 C-0.15357541 74.06510588 -0.30175717 63.13015346 -0.4429636 52.1950922 C-0.5086957 47.11805774 -0.57631849 42.04106284 -0.64819336 36.96411133 C-0.71742765 32.06884683 -0.7817855 27.17354073 -0.84269524 22.27816582 C-0.86685756 20.40614919 -0.89280707 18.53415479 -0.92053413 16.66218758 C-0.95893146 14.04964808 -0.99109677 11.4371033 -1.02172852 8.82446289 C-1.03467453 8.04259613 -1.04762054 7.26072937 -1.06095886 6.45516968 C-1.07903478 4.6367561 -1.04520691 2.81794142 -1 1 C-0.67 0.67 -0.34 0.34 0 0 Z M33.24609375 23.1796875 C27.23534755 31.78302061 26.0646419 39.59414114 27 50 C27.86880097 53.36660377 29.13855611 56.07320143 31 59 C31.38929688 59.62390625 31.77859375 60.2478125 32.1796875 60.890625 C36.37365686 66.59839396 42.38796535 69.75591551 49 72 C53.08364815 72.5302115 56.90992644 72.39834736 61 72 C61.90878906 71.91878906 62.81757813 71.83757812 63.75390625 71.75390625 C65.84028245 71.54167706 67.9212538 71.27716616 70 71 C68.43636055 67.34584258 66.17824958 64.7880312 63.5 61.875 C62.7059375 61.00617187 61.911875 60.13734375 61.09375 59.2421875 C59.75256247 57.80591578 58.38954317 56.38954317 57 55 C57.22743305 52.04337034 57.61235938 50.44966312 59.5625 48.1875 C60.036875 47.795625 60.51125 47.40375 61 47 C67.04288523 48.83117734 71.42866001 52.93481031 75.1875 57.875 C75.785625 58.57625 76.38375 59.2775 77 60 C78.32 60 79.64 60 81 60 C81 59.34 81 58.68 81 58 C81.99 57.67 82.98 57.34 84 57 C87.60502579 49.52290947 88.14944701 41.34391105 85.875 33.4375 C82.88426631 25.45293656 77.40914739 19.20200762 70 15 C56.84166186 9.60222971 42.45455404 11.7357658 33.24609375 23.1796875 Z " fill="#FEFEFE" transform="translate(122,0)"/>
<path d="M0 0 C1.65 0 3.3 0 5 0 C5.66 2.97 6.32 5.94 7 9 C9.1346875 9.185625 9.1346875 9.185625 11.3125 9.375 C14.80573798 9.67875982 15.96474514 9.97649676 19 12 C19.34057617 14.43017578 19.34057617 14.43017578 19.29296875 17.4453125 C19.28330078 18.52167969 19.27363281 19.59804687 19.26367188 20.70703125 C19.23853516 21.83496094 19.21339844 22.96289062 19.1875 24.125 C19.16719727 25.82849609 19.16719727 25.82849609 19.14648438 27.56640625 C19.11104319 30.37807387 19.06163517 33.18880417 19 36 C15.08935547 34.21289062 15.08935547 34.21289062 14.28515625 32.296875 C13.9110777 29.28374914 13.64953599 26.2790856 13.4375 23.25 C13.35371094 22.07953125 13.26992188 20.9090625 13.18359375 19.703125 C13.12300781 18.81109375 13.06242187 17.9190625 13 17 C11.02 17 9.04 17 7 17 C6.95101562 18.12019531 6.90203125 19.24039063 6.8515625 20.39453125 C6.77652144 21.86721203 6.70097418 23.33986707 6.625 24.8125 C6.57859375 25.91948242 6.57859375 25.91948242 6.53125 27.04882812 C6.32653852 30.81893115 6.13566173 32.79650741 4 36 C2.329375 35.7215625 2.329375 35.7215625 0.625 35.4375 C-2.82568861 34.68319343 -2.82568861 34.68319343 -5 36 C-10.12638233 36.73234033 -13.09639027 35.21055622 -17.23828125 32.44140625 C-19.48727723 30.60131863 -20.70874231 28.58251537 -22 26 C-24.64458379 24.67770811 -26.67761301 24.90322806 -29.625 24.9375 C-31.12933594 24.95103516 -31.12933594 24.95103516 -32.6640625 24.96484375 C-33.82035156 24.98224609 -33.82035156 24.98224609 -35 25 C-34.37371577 27.04689196 -34.37371577 27.04689196 -33 29 C-30.58320293 29.70176588 -30.58320293 29.70176588 -27.875 29.75 C-26.96492188 29.80671875 -26.05484375 29.8634375 -25.1171875 29.921875 C-24.06917969 29.96054688 -24.06917969 29.96054688 -23 30 C-22.375 31.875 -22.375 31.875 -22 34 C-24 36 -24 36 -26.6015625 36.1953125 C-28.09816406 36.16050781 -28.09816406 36.16050781 -29.625 36.125 C-30.62789062 36.10695312 -31.63078125 36.08890625 -32.6640625 36.0703125 C-33.82035156 36.03550781 -33.82035156 36.03550781 -35 36 C-35 35.34 -35 34.68 -35 34 C-39.7897321 33.76571687 -39.7897321 33.76571687 -44 36 C-47.83103042 35.68074747 -49.76680553 35.15546298 -53 33 C-54.42996426 28.71010722 -54.38544316 24.43101037 -54.62109375 19.93359375 C-54.7117863 16.88107831 -54.7117863 16.88107831 -57 15 C-56.71648095 11.03073331 -54.42164869 8.02706087 -52 5 C-49.25 4.125 -49.25 4.125 -47 4 C-46.71125 4.804375 -46.4225 5.60875 -46.125 6.4375 C-45.26737432 9.1326468 -45.26737432 9.1326468 -43 10 C-39.49945217 10.13463646 -36.42220452 10.0967552 -33 9.3125 C-28.95352632 8.89099233 -26.5963443 10.20182785 -23 12 C-22.195625 12.391875 -21.39125 12.78375 -20.5625 13.1875 C-20.046875 13.455625 -19.53125 13.72375 -19 14 C-18.47986328 13.30970703 -18.47986328 13.30970703 -17.94921875 12.60546875 C-15.13170319 10.28482968 -12.36936333 9.99776725 -8.8125 9.3125 C-7.54019531 9.06113281 -6.26789063 8.80976562 -4.95703125 8.55078125 C-3.98121094 8.36902344 -3.00539063 8.18726563 -2 8 C-1.34 5.36 -0.68 2.72 0 0 Z M-14 18 C-15.08805146 20.3566226 -15.08805146 20.3566226 -15 23 C-13.24886475 26.71261227 -13.24886475 26.71261227 -10 29 C-6.5 29.25 -6.5 29.25 -3 29 C-0.72783152 27.16262173 -0.72783152 27.16262173 -0.8046875 24.3984375 C-0.82789063 23.40070313 -0.85109375 22.40296875 -0.875 21.375 C-0.89304687 20.37210938 -0.91109375 19.36921875 -0.9296875 18.3359375 C-0.95289063 17.56507812 -0.97609375 16.79421875 -1 16 C-5.54018133 13.72990934 -10.58855195 14.19492333 -14 18 Z M-33 16 C-33.33 16.66 -33.66 17.32 -34 18 C-33.01 18 -32.02 18 -31 18 C-31 17.34 -31 16.68 -31 16 C-31.66 16 -32.32 16 -33 16 Z M-46 17 C-47.23267348 18.00836062 -47.23267348 18.00836062 -47.09765625 20.06640625 C-47.08605469 20.89011719 -47.07445312 21.71382812 -47.0625 22.5625 C-47.05347656 23.38878906 -47.04445312 24.21507812 -47.03515625 25.06640625 C-47.02355469 25.70449219 -47.01195312 26.34257813 -47 27 C-45.68 27.33 -44.36 27.66 -43 28 C-43 24.37 -43 20.74 -43 17 C-43.99 17 -44.98 17 -46 17 Z " fill="#FEFEFD" transform="translate(281,49)"/>
<path d="M0 0 C7.09243662 1.9947478 12.84073137 8.14621452 17 14 C17.4125 14.78375 17.825 15.5675 18.25 16.375 C20.83529288 20.25293932 24.25400452 23.2402114 28 26 C28.66 26 29.32 26 30 26 C30 26.66 30 27.32 30 28 C30.66 28 31.32 28 32 28 C32.41176754 31.60296594 32.1535853 32.78402067 30 35.8125 C29.34 36.534375 28.68 37.25625 28 38 C25.375 38.0625 25.375 38.0625 22 37 C20.26065322 34.84652304 18.87592552 32.58631902 17.4375 30.22265625 C15.14711588 26.68127428 12.29362639 24.70464086 8.640625 22.71484375 C5.65234515 20.77423006 3.64388415 18.62512282 1.3125 15.9375 C0.54550781 15.05964844 -0.22148437 14.18179688 -1.01171875 13.27734375 C-1.66785156 12.52582031 -2.32398438 11.77429687 -3 11 C-3.66 10.34 -4.32 9.68 -5 9 C-4.82194873 5.61702587 -4.21162756 4.23727939 -1.9375 1.6875 C-1.298125 1.130625 -0.65875 0.57375 0 0 Z " fill="#93C44D" transform="translate(183,46)"/>
<path d="M0 0 C6.875 3.75 6.875 3.75 8 6 C8.66 6 9.32 6 10 6 C10.41176754 9.60296594 10.1535853 10.78402067 8 13.8125 C7.34 14.534375 6.68 15.25625 6 16 C3.375 16.0625 3.375 16.0625 0 15 C-1.7719069 12.85460292 -3.16958132 10.61382351 -4.609375 8.234375 C-6.12759023 5.79499547 -7.85002067 3.90190479 -10 2 C-7 2 -4 2 -1 2 C-0.67 1.34 -0.34 0.68 0 0 Z " fill="#92C44D" transform="translate(205,68)"/>
<path d="M0 0 C0.66 0.33 1.32 0.66 2 1 C2 2.98 2 4.96 2 7 C2.99 6.67 3.98 6.34 5 6 C5.66 6.33 6.32 6.66 7 7 C7 7.99 7 8.98 7 10 C7.99 10 8.98 10 10 10 C10.66 8.68 11.32 7.36 12 6 C12.33 7.65 12.66 9.3 13 11 C12.360625 11.28875 11.72125 11.5775 11.0625 11.875 C8.84793921 12.82823451 8.84793921 12.82823451 8 15 C6.72799029 13.89718873 5.45744147 12.79269231 4.1875 11.6875 C3.47980469 11.07261719 2.77210938 10.45773438 2.04296875 9.82421875 C1.03169922 8.92123047 1.03169922 8.92123047 0 8 C-0.58136719 7.49082031 -1.16273438 6.98164062 -1.76171875 6.45703125 C-3 5 -3 5 -3 2 C-2.01 2 -1.02 2 0 2 C0 1.34 0 0.68 0 0 Z " fill="#F1F8E1" transform="translate(203,58)"/>
<path d="M0 0 C4.35535069 1.16142685 6.64619703 2.07699505 9 6 C7.68 6.99 6.36 7.98 5 9 C5 8.34 5 7.68 5 7 C3.68 7.99 2.36 8.98 1 10 C-1.0625 8.25 -1.0625 8.25 -3 6 C-2.82246387 2.98188578 -2.16264785 2.16264785 0 0 Z " fill="#8BC43E" transform="translate(185,51)"/>
<path d="M0 0 C4.75 0.875 4.75 0.875 7 2 C5.70700306 4.88437779 4.34058637 6.87219421 2 9 C-1.16115776 7.63016497 -1.9927092 7.0109362 -4 4 C-3.34 3.525625 -2.68 3.05125 -2 2.5625 C-1.34 2.046875 -0.68 1.53125 0 1 C0 0.67 0 0.34 0 0 Z " fill="#92BE4A" transform="translate(207,73)"/>
<path d="M0 0 C2.375 1.5 2.375 1.5 4 3 C3.67 4.32 3.34 5.64 3 7 C1.37181054 6.77169299 -0.2526349 6.51656424 -1.875 6.25 C-2.77992188 6.11078125 -3.68484375 5.9715625 -4.6171875 5.828125 C-7 5 -7 5 -8.3203125 2.921875 C-8.54460937 2.28765625 -8.76890625 1.6534375 -9 1 C-5.70952793 -0.09682402 -3.44927034 -0.28157309 0 0 Z " fill="#8FC444" transform="translate(201,65)"/>
<path d="M0 0 C4.75 1.875 4.75 1.875 7 3 C7 3.66 7 4.32 7 5 C4.03 4.505 4.03 4.505 1 4 C-0.68630119 7.51033129 -0.68630119 7.51033129 -0.625 11.3125 C-0.41875 11.869375 -0.2125 12.42625 0 13 C-1.65 11.68 -3.3 10.36 -5 9 C-4.5206753 4.68607774 -3.2542015 2.83430453 0 0 Z " fill="#94B65D" transform="translate(183,46)"/>
<path d="M0 0 C3.96790076 1.67872725 6.86931494 4.08277074 10 7 C10 7.99 10 8.98 10 10 C8.68 10 7.36 10 6 10 C6 9.34 6 8.68 6 8 C5.34 8 4.68 8 4 8 C0 2.58823529 0 2.58823529 0 0 Z " fill="#F1FBE5" transform="translate(192,69)"/>
<path d="M0 0 C0.33 0.66 0.66 1.32 1 2 C1.66 2 2.32 2 3 2 C3.41176754 5.60296594 3.1535853 6.78402067 1 9.8125 C0.34 10.534375 -0.32 11.25625 -1 12 C-6.53846154 11.50769231 -6.53846154 11.50769231 -8.875 8.9375 C-9.24625 8.298125 -9.6175 7.65875 -10 7 C-9.67 6.34 -9.34 5.68 -9 5 C-8.4225 5.66 -7.845 6.32 -7.25 7 C-5.00346023 9.44290923 -5.00346023 9.44290923 -1 9 C-0.690625 8.38125 -0.38125 7.7625 -0.0625 7.125 C0.625 5.75 1.3125 4.375 2 3 C1.34 3 0.68 3 0 3 C0 2.01 0 1.02 0 0 Z " fill="#BAD18B" transform="translate(212,72)"/>
<path d="M0 0 C2.86697492 1.28519565 4.97607712 2.57129254 7 5 C7 5.66 7 6.32 7 7 C8.32 7.66 9.64 8.32 11 9 C10.01 9.33 9.02 9.66 8 10 C6.66370254 8.52351062 5.33103329 7.0437367 4 5.5625 C3.2575 4.73878906 2.515 3.91507813 1.75 3.06640625 C0 1 0 1 0 0 Z " fill="#B1CF79" transform="translate(183,59)"/>
<path d="M0 0 C2.475 0.495 2.475 0.495 5 1 C5 1.66 5 2.32 5 3 C5.99 3.33 6.98 3.66 8 4 C7.67 4.99 7.34 5.98 7 7 C5.83040013 6.02433888 4.66438823 5.044375 3.5 4.0625 C2.8503125 3.51722656 2.200625 2.97195312 1.53125 2.41015625 C1.0259375 1.94480469 0.520625 1.47945313 0 1 C0 0.67 0 0.34 0 0 Z " fill="#DBF1BE" transform="translate(204,66)"/>
<path d="M0 0 C2.5 1.8125 2.5 1.8125 5 4 C5 4.99 5 5.98 5 7 C3.68 7 2.36 7 1 7 C0.67 4.69 0.34 2.38 0 0 Z " fill="#E1F6CA" transform="translate(197,72)"/>
<path d="M0 0 C1.65 0.33 3.3 0.66 5 1 C4.01 1.495 4.01 1.495 3 2 C3.33 2.99 3.66 3.98 4 5 C3.01 5.33 2.02 5.66 1 6 C0.34 5.67 -0.32 5.34 -1 5 C-0.67 3.35 -0.34 1.7 0 0 Z " fill="#89C23D" transform="translate(207,73)"/>
<path d="M0 0 C0.33 0.66 0.66 1.32 1 2 C1.66 2 2.32 2 3 2 C3 3.65 3 5.3 3 7 C1.02 7.99 1.02 7.99 -1 9 C0 7 1 5 2 3 C1.34 3 0.68 3 0 3 C0 2.01 0 1.02 0 0 Z " fill="#AACF81" transform="translate(212,72)"/>
</svg>
